<svg width="112" height="25" viewBox="0 0 112 25" fill="none" xmlns="http://www.w3.org/2000/svg">
<path fill-rule="evenodd" clip-rule="evenodd" d="M20.2118 24.0614H25.783V1.00039L20.2118 3.00752V24.0614ZM14.8349 8.58521L9.91155 13.2218H5.24729L10.7537 7.08145C10.1707 7.0188 9.58764 7.0188 9.00461 7.0188C4.5347 7.0188 0 10.3396 0 15.6028C0 21.0539 4.66426 24.4373 9.3933 24.4373C12.8915 24.4373 15.6123 22.8083 17.0375 20.6779L12.3732 19.2368C11.6606 19.8634 10.6241 20.2393 9.45808 20.2393C7.38508 20.2393 5.18251 18.7356 5.11773 16.9185H17.9444C18.0092 16.7932 18.074 16.0414 18.074 15.4148C18.074 12.3446 16.8432 10.0263 14.8349 8.58521ZM36.6663 6.95614C31.9372 6.95614 27.7912 10.3396 27.7912 15.6654C27.7912 21.2419 32.0668 24.5 37.0549 24.5C40.877 24.5 43.7922 22.8709 45.2174 20.7406L40.3588 19.2368C39.5814 19.8634 38.4154 20.2393 37.1197 20.2393C34.9819 20.2393 33.2976 18.9236 33.1681 17.0439H46.1243C46.1891 16.9185 46.2539 16.1667 46.2539 15.4774C46.2539 10.089 42.3022 6.95614 36.6663 6.95614ZM33.2976 13.7231C33.4272 12.4699 34.658 10.5902 36.9902 10.5902C39.6462 10.5902 40.7475 12.4699 40.8123 13.7231H33.2976ZM75.8602 6.70551C71.1312 6.70551 66.7908 10.089 66.7908 15.4148C66.7908 20.9912 71.2607 24.2494 76.2489 24.2494C79.9414 24.2494 82.9862 22.683 84.4761 20.6153L79.5527 19.0489C78.7106 19.6128 77.5445 19.9887 76.2489 19.9887C74.1111 19.9887 72.2325 18.6729 72.1029 16.7932H85.4479C85.5126 16.6679 85.5774 15.916 85.5774 15.2268C85.6422 9.901 81.4962 6.70551 75.8602 6.70551ZM72.2972 13.5351C72.4268 12.282 73.852 10.4649 76.1841 10.4649C78.8402 10.4649 80.2006 12.282 80.2654 13.5351H72.2972ZM98.2098 7.08145C96.3311 7.08145 94.1286 7.83333 93.0921 9.39975V6.64286L87.7152 9.08897V24.1241H93.2864V14.6003C93.2864 12.9085 94.4525 11.718 96.2663 11.718C98.2746 11.718 99.2463 12.9712 99.2463 14.6003V24.1867H104.817V13.6604C104.882 10.0263 102.809 7.08145 98.2098 7.08145ZM110.575 5.20175C110.575 4.7005 110.186 4.32456 109.603 4.32456H108.437V7.0188H109.15V6.1416H109.344L109.797 7.0188H110.575L110.057 6.01629C110.38 5.82832 110.575 5.51504 110.575 5.20175ZM109.474 5.51504H109.15V4.88847H109.474C109.668 4.88847 109.862 5.01378 109.862 5.20175C109.862 5.38972 109.733 5.51504 109.474 5.51504ZM109.409 3.13409C107.984 3.13409 106.817 4.2619 106.817 5.64035C106.817 7.0188 107.984 8.14662 109.409 8.14662C110.834 8.14662 112 7.0188 112 5.64035C112 4.2619 110.834 3.13409 109.409 3.13409ZM109.409 7.58271C108.307 7.58271 107.465 6.70551 107.465 5.64035C107.465 4.57519 108.307 3.69799 109.409 3.69799C110.51 3.69799 111.352 4.57519 111.352 5.64035C111.417 6.76817 110.575 7.58271 109.409 7.58271ZM66.5953 7.52005H59.858L53.9629 13.3471V0L48.3917 3.00752V24.0614H53.9629V19.8008L57.0076 17.9211L60.8945 24.0614H67.1135L60.0523 14.0363L66.5953 7.52005Z" fill="#F6F4F2"/>
</svg>
